<svg width="32" height="32" viewBox="0 0 32 32" fill="none" xmlns="http://www.w3.org/2000/svg">
  <path d="M17.412 16.7707L17.4637 16.719L17.567 16.6157L17.6373 16.546L17.8517 16.3342L18.1425 16.047L18.3925 15.8L18.6271 15.5681L18.8719 15.3258L19.0967 15.1042L19.4097 14.7942C19.4693 14.736 19.5297 14.6787 19.591 14.6222C19.7042 14.5189 19.8214 14.4181 19.9413 14.3221C20.0511 14.2336 20.1638 14.1487 20.2791 14.0674C20.4407 13.9527 20.607 13.8449 20.7782 13.744C20.9493 13.6431 21.1215 13.5513 21.2948 13.4686C21.4601 13.3884 21.6288 13.3149 21.801 13.2481C21.8966 13.2109 21.9937 13.1752 22.0913 13.1447L22.2391 13.0962C21.8052 11.3886 21.0104 9.79391 19.9082 8.41948C19.8027 8.28814 19.669 8.18223 19.5169 8.10962C19.3649 8.037 19.1985 7.99954 19.03 8H10.0243C9.98864 7.99992 9.95392 8.01114 9.92508 8.03203C9.89623 8.05293 9.87476 8.08243 9.86373 8.1163C9.85271 8.15017 9.85271 8.18666 9.86373 8.22053C9.87476 8.2544 9.89623 8.2839 9.92508 8.30479C12.9997 10.5582 15.5474 13.4535 17.3914 16.7898L17.412 16.7707Z" fill="#00D3B6"/>
  <path d="M13.8398 24.6994C16.0462 24.7003 18.2127 24.111 20.1147 22.9925C22.0167 21.8741 23.5849 20.2672 24.6567 18.3386C24.7311 18.2053 24.8029 18.0707 24.8721 17.9346C24.7668 18.1367 24.6484 18.3317 24.5177 18.5184C24.4719 18.5838 24.4247 18.6479 24.3762 18.7105C24.3157 18.7896 24.2527 18.8655 24.1881 18.9399C24.1372 18.9981 24.0855 19.0551 24.0331 19.1109C23.924 19.2239 23.8108 19.3308 23.6937 19.4317C23.628 19.4875 23.5613 19.5416 23.4938 19.5939C23.4143 19.6549 23.3326 19.7132 23.25 19.7685C23.1983 19.8042 23.1467 19.8383 23.0904 19.8718C23.0341 19.9054 22.9777 19.939 22.9204 19.971C22.8043 20.0361 22.6852 20.096 22.5629 20.1508C22.4575 20.1983 22.3503 20.2421 22.2411 20.282C22.1233 20.3249 22.004 20.3631 21.8821 20.3972C21.7008 20.4472 21.5167 20.4867 21.3309 20.5155C21.196 20.5367 21.0591 20.5517 20.9212 20.5615C20.7833 20.5713 20.6309 20.576 20.4836 20.5734C20.3219 20.5734 20.1592 20.561 19.9955 20.5429C19.8751 20.5295 19.7547 20.5124 19.6339 20.4912C19.5285 20.4726 19.4229 20.4506 19.3172 20.4251C19.2614 20.4122 19.2056 20.3977 19.1498 20.3827C18.9948 20.3407 18.8398 20.2975 18.6849 20.2531L18.455 20.1859C18.3408 20.1518 18.2267 20.1167 18.113 20.0826L17.834 19.9938L17.5706 19.9064C17.5101 19.8863 17.4502 19.8662 17.3908 19.8455C17.318 19.8207 17.2451 19.7938 17.1728 19.7696L17.0178 19.7143C16.9145 19.6776 16.8112 19.6399 16.7115 19.6022L16.5343 19.535C16.4554 19.5051 16.3766 19.4746 16.2977 19.4436C16.2188 19.4126 16.1358 19.3795 16.0487 19.3444L15.8875 19.2788L15.6871 19.1951L15.5321 19.1295L15.3714 19.0603L15.233 18.9993L15.1064 18.9425L14.9783 18.8846L14.8461 18.8237L14.6792 18.7451L14.5051 18.6625L14.3191 18.5721L14.1616 18.4941C11.3975 17.1147 8.90171 15.2534 6.79137 12.9975C6.76818 12.9728 6.73806 12.9556 6.70494 12.9482C6.67183 12.9409 6.63726 12.9437 6.60577 12.9563C6.57428 12.9689 6.54733 12.9908 6.52846 13.0189C6.50959 13.0471 6.49967 13.0804 6.50001 13.1143L6.50466 21.0615V21.7063C6.50405 21.8907 6.54906 22.0725 6.63567 22.2353C6.72229 22.3982 6.84782 22.5371 7.0011 22.6397C9.02726 23.9865 11.4068 24.7032 13.8398 24.6994Z" fill="#3370FF"/>
  <path d="M24.6566 18.3386L24.6504 18.3494L24.6571 18.3391L24.699 18.2611C24.684 18.2869 24.6711 18.3127 24.6566 18.3386Z" fill="#133C97"/>
  <path d="M24.8511 17.9754L24.8619 17.9548L24.8671 17.9439C24.8619 17.9548 24.8562 17.9651 24.8511 17.9754Z" fill="#133C97"/>
  <path d="M27.5 13.496C25.9307 12.7266 24.133 12.5623 22.4503 13.0347C22.3795 13.0543 22.3093 13.0755 22.2395 13.0972L22.0918 13.1458C21.9941 13.1788 21.897 13.2145 21.8015 13.2491C21.6293 13.3163 21.4605 13.3898 21.2952 13.4697C21.1196 13.5544 20.9474 13.6462 20.7786 13.745C20.6098 13.8439 20.4435 13.9517 20.2796 14.0684C20.1645 14.15 20.0519 14.2349 19.9417 14.3231C19.8219 14.4192 19.7046 14.5194 19.5915 14.6232C19.5302 14.6794 19.4697 14.7367 19.4102 14.7953L19.0971 15.1052L18.8724 15.3268L18.6275 15.5691L18.3945 15.8006L18.1445 16.0475L17.8537 16.3347L17.6393 16.5465L17.569 16.6163L17.4657 16.7196L17.414 16.7712L17.3345 16.8461L17.2451 16.9278C16.4703 17.6398 15.608 18.2505 14.6792 18.7451L14.8461 18.8231L14.9783 18.8841L15.1064 18.942L15.233 18.9988L15.3714 19.0597L15.5321 19.129L15.6871 19.1946L15.8875 19.2783L16.0487 19.3439C16.1313 19.3783 16.2143 19.4114 16.2977 19.443C16.381 19.4747 16.4599 19.5052 16.5343 19.5345L16.7115 19.6016C16.8148 19.6393 16.9155 19.6771 17.0178 19.7137L17.1728 19.769C17.2451 19.7948 17.318 19.8207 17.3908 19.845C17.4502 19.8656 17.5101 19.8858 17.5706 19.9059L17.834 19.9932L18.113 20.0821C18.2266 20.1172 18.3408 20.1523 18.455 20.1854L18.6849 20.2525C18.8388 20.297 18.9938 20.3402 19.1498 20.3822C19.2056 20.3972 19.2614 20.4117 19.3172 20.4246C19.4232 20.4501 19.5288 20.4721 19.6338 20.4907C19.7552 20.5124 19.8756 20.5294 19.9954 20.5424C20.1592 20.5604 20.3219 20.5702 20.4836 20.5728C20.6309 20.5754 20.7771 20.5728 20.9212 20.561C21.0653 20.5491 21.196 20.5362 21.3308 20.515C21.5161 20.4866 21.6997 20.4477 21.8805 20.3982C22.0024 20.3641 22.1217 20.3259 22.2395 20.283C22.3487 20.2431 22.456 20.1993 22.5614 20.1518C22.6833 20.0971 22.8024 20.0371 22.9188 19.972C22.9762 19.94 23.033 19.9069 23.0888 19.8728C23.1446 19.8388 23.1957 19.8057 23.2484 19.7695C23.3311 19.7143 23.4127 19.6559 23.4923 19.5949C23.5611 19.5426 23.6278 19.4885 23.6922 19.4327C23.8093 19.3321 23.9224 19.2252 24.0316 19.1119C24.0846 19.0561 24.1363 18.9991 24.1866 18.9409C24.2511 18.8665 24.3142 18.7906 24.3746 18.7116C24.4232 18.6489 24.4703 18.5848 24.5161 18.5194C24.6457 18.3341 24.7632 18.1407 24.8679 17.9403L24.9883 17.6995L26.0773 15.5299V15.5345C26.4236 14.7741 26.9057 14.0833 27.5 13.496Z" fill="#133C97"/>
</svg>
