<svg xmlns="http://www.w3.org/2000/svg" viewBox="0 0 64 64" role="img" aria-label="Gmail">
  <rect width="64" height="64" rx="14" fill="#fff"/>
  <path d="M13 21.5v24c0 2.5 2 4.5 4.5 4.5h6V29.2L13 21.5Z" fill="#4285F4"/>
  <path d="M40.5 50h6c2.5 0 4.5-2 4.5-4.5v-24l-10.5 7.7V50Z" fill="#34A853"/>
  <path d="M40.5 21.7 32 28.1l-8.5-6.4V29.2L32 35.6l8.5-6.4v-7.5Z" fill="#EA4335"/>
  <path d="M13 21.5c0-3.6 4.1-5.7 7-3.6l3.5 2.6v8.7L13 21.5Z" fill="#C5221F"/>
  <path d="M51 21.5c0-3.6-4.1-5.7-7-3.6l-3.5 2.6v8.7L51 21.5Z" fill="#FBBC04"/>
</svg>
