<svg xmlns="http://www.w3.org/2000/svg" viewBox="0 0 128 128" preserveAspectRatio="xMidYMid meet">
  <title>Hand</title>
  <desc>Hand icon from Lucide, ISC License.</desc>
  <rect width="128" height="128" rx="20" fill="#F59E0B"/>
  <g transform="translate(20 18) scale(3.7)" fill="none" stroke="#ffffff" stroke-width="2.2" stroke-linecap="round" stroke-linejoin="round">
    <path d="M18 11V6a2 2 0 0 0-2-2a2 2 0 0 0-2 2"/>
    <path d="M14 10V4a2 2 0 0 0-2-2a2 2 0 0 0-2 2v2"/>
    <path d="M10 10.5V6a2 2 0 0 0-2-2a2 2 0 0 0-2 2v8"/>
    <path d="M18 8a2 2 0 1 1 4 0v6a8 8 0 0 1-8 8h-2c-2.8 0-4.5-.86-5.99-2.34l-3.6-3.6a2 2 0 0 1 2.83-2.82L7 15"/>
  </g>
</svg>
