<svg xmlns="http://www.w3.org/2000/svg" viewBox="0 0 64 64" fill="none">
  <rect width="64" height="64" rx="16" fill="#f2f2f2"/>
  <path d="M32 10c-12.15 0-22 9.85-22 22 0 9.72 6.3 17.96 15.04 20.87 1.1.2 1.5-.48 1.5-1.06 0-.52-.02-2.25-.03-4.08-6.12 1.33-7.41-2.6-7.41-2.6-1-2.54-2.45-3.22-2.45-3.22-2-.1.15-1.96.15-1.96 2.21.16 3.38 2.27 3.38 2.27 1.97 3.37 5.16 2.4 6.42 1.83.2-1.43.77-2.4 1.4-2.95-4.88-.56-10.02-2.44-10.02-10.86 0-2.4.86-4.37 2.27-5.9-.23-.56-.98-2.8.22-5.83 0 0 1.85-.59 6.05 2.25A21.1 21.1 0 0 1 32 20c1.87 0 3.75.25 5.51.76 4.2-2.84 6.04-2.25 6.04-2.25 1.2 3.03.45 5.27.22 5.83 1.41 1.53 2.27 3.5 2.27 5.9 0 8.44-5.15 10.29-10.05 10.83.79.68 1.5 2.02 1.5 4.07 0 2.94-.03 5.31-.03 6.03 0 .59.4 1.27 1.51 1.06A22.01 22.01 0 0 0 54 32c0-12.15-9.85-22-22-22Z" fill="#1f2328"/>
</svg>
